<svg id="图层_2" data-name="图层 2" xmlns="http://www.w3.org/2000/svg" viewBox="0 0 100.73 124.92"><defs><style>.cls-1{fill:#0d79f2;}.cls-1,.cls-2,.cls-3,.cls-4,.cls-5,.cls-7{fill-rule:evenodd;}.cls-2{fill:#3f0;}.cls-3{fill:#fff;}.cls-4{fill:#090;}.cls-5{fill:#f03;}.cls-6{fill:none;stroke:#fff;stroke-linecap:round;stroke-linejoin:round;stroke-width:2.7px;}.cls-7{fill:#cf6;}</style></defs><title>icon</title><path class="cls-1" d="M100.89,85.41a20.75,20.75,0,1,1-15.84,24.7,20.77,20.77,0,0,1,15.84-24.7Z" transform="translate(-45.84 -29)"/><path class="cls-2" d="M58.29,124.24c5.2,1.22,8.22,7.39,6.73,13.77s-6.65,7.14-11.52,5-8.83-3-7.34-9.37,6.93-10.57,12.13-9.35Z" transform="translate(-45.84 -29)"/><path class="cls-2" d="M136,113c4.63-.52,8.91,3.66,9.55,9.33s-3.36,7.8-8,7.43-8.12.14-8.76-5.53,2.59-10.7,7.21-11.23Z" transform="translate(-45.84 -29)"/><path class="cls-3" d="M97.18,56.47c27.26,0,49.39,19.18,49.39,42.82s-22.13,42.83-49.39,42.83S47.79,122.94,47.79,99.3,69.92,56.47,97.18,56.47Z" transform="translate(-45.84 -29)"/><path class="cls-4" d="M80,71a30.68,30.68,0,1,1-23.43,36.53A30.71,30.71,0,0,1,80,71Zm1.67,7.66a22.85,22.85,0,1,1-17.44,27.19A22.86,22.86,0,0,1,81.66,78.67Z" transform="translate(-45.84 -29)"/><path class="cls-5" d="M81.94,85.48a16.13,16.13,0,1,1-12.31,19.2,16.14,16.14,0,0,1,12.31-19.2Z" transform="translate(-45.84 -29)"/><path class="cls-3" d="M89,91c4.79,1.74,8,5.09,7.11,7.49s-4.35,1.2-9.14-.54-9.1-3.36-8.23-5.75S84.16,89.29,89,91Z" transform="translate(-45.84 -29)"/><path class="cls-2" d="M111.67,134.55a11.82,11.82,0,0,1,14,9.15c1.4,6.43-3.9,9.56-10.31,9.91s-11.14,1.52-12.54-4.91a11.81,11.81,0,0,1,8.88-14.15Z" transform="translate(-45.84 -29)"/><path class="cls-6" d="M106.7,43.05s3.9,10-.7,19" transform="translate(-45.84 -29)"/><path class="cls-7" d="M108.2,29.34A9.47,9.47,0,1,1,96.55,36a9.47,9.47,0,0,1,11.65-6.62Z" transform="translate(-45.84 -29)"/></svg>